%FSLAX34Y34*%
%MOMM*%
%LNSOLDERMASK_BOTTOM*%
G71*
G01*
%ADD10C, 1.880*%
%ADD11C, 2.120*%
%LPD*%
G36*
X640528Y787952D02*
X640528Y769152D01*
X621728Y769152D01*
X621728Y787952D01*
X640528Y787952D01*
G37*
X605728Y778552D02*
G54D10*
D03*
X631128Y753152D02*
G54D10*
D03*
X605728Y753152D02*
G54D10*
D03*
X631128Y727752D02*
G54D10*
D03*
X605728Y727752D02*
G54D10*
D03*
X631128Y702352D02*
G54D10*
D03*
X605728Y702352D02*
G54D10*
D03*
X631128Y676952D02*
G54D10*
D03*
X605728Y676952D02*
G54D10*
D03*
X631128Y651552D02*
G54D10*
D03*
X605728Y651552D02*
G54D10*
D03*
X631128Y626152D02*
G54D10*
D03*
X605728Y626152D02*
G54D10*
D03*
X631128Y600752D02*
G54D10*
D03*
X605728Y600752D02*
G54D10*
D03*
G36*
X1085200Y452300D02*
X1104000Y452300D01*
X1104000Y433500D01*
X1085200Y433500D01*
X1085200Y452300D01*
G37*
X1094600Y468300D02*
G54D10*
D03*
X1120000Y442900D02*
G54D10*
D03*
X1120000Y468300D02*
G54D10*
D03*
X1145400Y442900D02*
G54D10*
D03*
X1145400Y468300D02*
G54D10*
D03*
X1170800Y442900D02*
G54D10*
D03*
X1170800Y468300D02*
G54D10*
D03*
X1196200Y442900D02*
G54D10*
D03*
X1196200Y468300D02*
G54D10*
D03*
G36*
X755200Y814800D02*
X755200Y793600D01*
X734000Y793600D01*
X734000Y814800D01*
X755200Y814800D01*
G37*
X744600Y778800D02*
G54D11*
D03*
X744600Y753400D02*
G54D11*
D03*
X744600Y728000D02*
G54D11*
D03*
X744600Y702600D02*
G54D11*
D03*
G36*
X990900Y814900D02*
X990900Y793700D01*
X969700Y793700D01*
X969700Y814900D01*
X990900Y814900D01*
G37*
X980300Y778900D02*
G54D11*
D03*
X980300Y753500D02*
G54D11*
D03*
X980300Y728100D02*
G54D11*
D03*
X980300Y702700D02*
G54D11*
D03*
G36*
X755200Y687800D02*
X755200Y666600D01*
X734000Y666600D01*
X734000Y687800D01*
X755200Y687800D01*
G37*
X744600Y651800D02*
G54D11*
D03*
X744600Y626400D02*
G54D11*
D03*
X744600Y601000D02*
G54D11*
D03*
X744600Y575600D02*
G54D11*
D03*
G36*
X755200Y560800D02*
X755200Y539600D01*
X734000Y539600D01*
X734000Y560800D01*
X755200Y560800D01*
G37*
X744600Y524800D02*
G54D11*
D03*
X744600Y499400D02*
G54D11*
D03*
X744600Y474000D02*
G54D11*
D03*
X744600Y448600D02*
G54D11*
D03*
G36*
X990900Y687900D02*
X990900Y666700D01*
X969700Y666700D01*
X969700Y687900D01*
X990900Y687900D01*
G37*
X980300Y651900D02*
G54D11*
D03*
X980300Y626500D02*
G54D11*
D03*
X980300Y601100D02*
G54D11*
D03*
X980300Y575700D02*
G54D11*
D03*
G36*
X990900Y560900D02*
X990900Y539700D01*
X969700Y539700D01*
X969700Y560900D01*
X990900Y560900D01*
G37*
X980300Y524900D02*
G54D11*
D03*
X980300Y499500D02*
G54D11*
D03*
X980300Y474100D02*
G54D11*
D03*
X980300Y448700D02*
G54D11*
D03*
G36*
X578400Y474600D02*
X578400Y453400D01*
X557200Y453400D01*
X557200Y474600D01*
X578400Y474600D01*
G37*
X567800Y438600D02*
G54D11*
D03*
X567800Y413200D02*
G54D11*
D03*
X567800Y387800D02*
G54D11*
D03*
X1095000Y404000D02*
G54D11*
D03*
X943600Y404900D02*
G54D11*
D03*
X943900Y384000D02*
G54D11*
D03*
X1094800Y384000D02*
G54D11*
D03*
X903000Y725700D02*
G54D11*
D03*
X902300Y644300D02*
G54D11*
D03*
X924000Y725800D02*
G54D11*
D03*
X924000Y644600D02*
G54D11*
D03*
X709200Y741200D02*
G54D11*
D03*
X708400Y574800D02*
G54D11*
D03*
X708500Y549900D02*
G54D11*
D03*
X568700Y549900D02*
G54D11*
D03*
X1135900Y535100D02*
G54D11*
D03*
X1225200Y534900D02*
G54D11*
D03*
M02*
